<svg width="142" height="142" viewBox="0 0 142 142" fill="none" xmlns="http://www.w3.org/2000/svg">
<path fill-rule="evenodd" clip-rule="evenodd" d="M45.1247 12.5558C32.7412 13.4017 23.4893 15.6311 18.5387 19.1468C15.8847 21.0316 14.3063 22.419 13.4117 23.3924C13.8224 23.7176 14.3305 24.0915 14.9959 24.5812C15.208 24.7373 15.4362 24.9052 15.6822 25.087C18.3464 27.0557 22.8762 30.4439 24.69 36.2568C26.5788 42.3102 25.0939 49.2686 20.2265 57.4831C19.3163 59.0193 19.0488 59.9135 18.9746 60.3451C19.305 60.544 20.0532 60.8987 21.5829 61.2127C27.2288 62.3716 37.0292 61.6452 48.4298 59.763C59.5448 57.9279 71.273 55.1619 80.2727 52.8371C84.7607 51.6777 88.5455 50.6346 91.2042 49.8824C92.5331 49.5065 93.5796 49.2036 94.2907 48.9956C94.6462 48.8916 94.9178 48.8114 95.0988 48.7576L95.3016 48.6973L95.3635 48.6787L103.092 46.3543V103.865L92.0854 86.7625C92.0637 86.7323 92.0154 86.6668 91.9407 86.5732C91.775 86.3657 91.4897 86.0335 91.0868 85.6485C90.2708 84.8688 89.0598 83.9548 87.4601 83.3531C84.6754 82.3055 79.0968 81.6022 69.9091 88.3024C62.6059 93.6283 61.8676 103.064 64.3715 113.609C65.5641 118.631 67.3731 123.289 68.9107 126.725C69.3069 127.611 69.6818 128.408 70.0186 129.101H129.574V19.2718C127.024 18.8308 123.57 18.256 119.443 17.624C110.236 16.2141 97.7178 14.526 84.4326 13.4023C71.1154 12.2759 57.193 11.7314 45.1247 12.5558ZM135.574 14.2549L136.705 8.36252L141.574 9.29746V141.101H62.9006L61.1709 138.09L66.3738 135.101C61.1709 138.09 61.1699 138.088 61.1688 138.086L61.1663 138.082L61.1599 138.07L61.1413 138.038C61.1265 138.012 61.1067 137.977 61.0823 137.933C61.0334 137.846 60.9658 137.725 60.8814 137.57C60.7126 137.262 60.4763 136.823 60.1882 136.266C59.6127 135.155 58.8267 133.57 57.9569 131.626C56.2278 127.761 54.1169 122.365 52.6961 116.381C49.9735 104.915 49.2351 88.5271 62.8384 78.6068C74.2444 70.2889 83.8141 69.4006 91.0917 71.9077V62.3715C88.8535 62.987 86.2104 63.6971 83.274 64.4557C74.114 66.8219 61.9999 69.685 50.3845 71.6027C39.0547 73.4733 27.2365 74.6233 19.1701 72.9676C15.279 72.1689 10.4284 70.3506 8.11594 65.7289C5.69525 60.8909 7.34196 55.6877 9.90279 51.3659C13.9301 44.5692 13.6861 41.2778 13.2347 39.8312C12.7082 38.1439 11.3166 36.7818 8.55066 34.7379C8.38873 34.6183 8.21424 34.4907 8.03017 34.3561C6.92413 33.5472 5.47222 32.4854 4.31953 31.3747C2.93572 30.0413 1.03596 27.7768 0.764918 24.4872C0.49011 21.1519 2.00638 18.3417 3.79731 16.1662C5.59499 13.9825 8.21989 11.7567 11.5906 9.36292C19.4657 3.77037 31.6902 1.44558 44.3069 0.583713C57.2389 -0.299688 71.8405 0.294371 85.444 1.44501C99.0797 2.59836 111.88 4.32593 121.259 5.76229C125.954 6.48113 129.802 7.1286 132.482 7.59745C133.822 7.83191 134.87 8.02181 135.588 8.15376C135.946 8.21974 136.222 8.27124 136.41 8.30658L136.625 8.34729L136.703 8.36205C136.704 8.36232 136.705 8.36252 135.574 14.2549ZM18.9522 60.6685C18.9514 60.6689 18.9491 60.6571 18.9482 60.632C18.9527 60.6556 18.9531 60.6682 18.9522 60.6685ZM12.3914 22.4601C12.3919 22.4602 12.3979 22.4677 12.4082 22.4826C12.396 22.4675 12.3909 22.4601 12.3914 22.4601ZM12.625 24.4064C12.6193 24.4202 12.6157 24.4272 12.6153 24.4273C12.615 24.4274 12.6178 24.4205 12.625 24.4064Z" fill="#241E60"/>
</svg>
